<svg width="21.000000" height="19.000000" viewBox="0 0 21 19" fill="none" xmlns="http://www.w3.org/2000/svg" xmlns:xlink="http://www.w3.org/1999/xlink">
	<desc>
			Created with Pixso.
	</desc>
	<defs/>
	<path id="icon_waterpool" d="M14.9 0C14.89 0 14.83 0.01 14.77 0.01C14.35 0.05 13.92 0.2 13.56 0.43C13.17 0.69 12.87 1.02 12.65 1.44C12.48 1.77 12.43 1.97 12.39 2.44C12.39 2.53 12.38 3.06 12.38 3.75L12.38 4.92L8.5 4.92L4.62 4.92L4.62 3.96C4.62 2.54 4.63 2.3 4.71 2.07C4.75 1.96 4.8 1.88 4.89 1.78C5.07 1.58 5.3 1.42 5.52 1.35C5.64 1.31 5.71 1.3 5.87 1.3C6.05 1.29 6.15 1.3 6.3 1.36C6.51 1.42 6.69 1.53 6.84 1.67C7.05 1.87 7.15 2.07 7.22 2.49C7.25 2.7 7.3 2.83 7.38 2.93C7.48 3.07 7.64 3.14 7.88 3.15C8.04 3.16 8.13 3.14 8.22 3.1C8.3 3.07 8.4 2.98 8.47 2.91C8.58 2.78 8.59 2.74 8.58 2.42C8.58 2.13 8.55 1.98 8.48 1.75C8.22 0.97 7.55 0.35 6.72 0.11C6.45 0.04 6.25 0.01 5.94 0C5.69 0 5.53 0.01 5.37 0.04C4.75 0.16 4.19 0.49 3.79 0.98C3.68 1.12 3.57 1.29 3.47 1.49C3.34 1.73 3.31 1.82 3.28 2.05C3.22 2.5 3.22 3.19 3.23 7.79L3.24 11.28L3.3 11.37C3.37 11.47 3.46 11.56 3.56 11.62C3.65 11.67 3.7 11.69 3.86 11.69C4.04 11.7 4.14 11.69 4.22 11.65C4.35 11.59 4.49 11.45 4.55 11.35C4.56 11.32 4.57 11.28 4.58 11.24C4.59 11.16 4.61 10.87 4.62 10.29C4.62 10 4.63 9.76 4.63 9.76C4.63 9.75 6.37 9.75 8.5 9.75L12.37 9.75L12.37 10C12.38 10.13 12.38 10.43 12.39 10.65C12.4 11.09 12.4 11.22 12.43 11.29C12.46 11.41 12.64 11.59 12.79 11.66C12.86 11.69 12.97 11.7 13.11 11.69C13.38 11.68 13.51 11.61 13.67 11.4C13.71 11.34 13.74 11.3 13.75 11.29C13.75 11.28 13.76 9.23 13.77 6.73L13.8 2.19L13.88 2.03C13.98 1.85 14.06 1.74 14.16 1.65C14.52 1.33 15.02 1.22 15.48 1.36C15.7 1.43 15.92 1.57 16.07 1.74C16.24 1.94 16.32 2.13 16.37 2.5C16.43 2.87 16.57 3.06 16.84 3.13C16.9 3.14 16.94 3.15 17.07 3.15C17.25 3.15 17.32 3.13 17.43 3.08C17.55 3.02 17.69 2.85 17.73 2.74C17.75 2.67 17.75 2.31 17.73 2.15C17.66 1.63 17.42 1.17 17.01 0.77C16.57 0.35 16.04 0.1 15.42 0.01C15.32 0 14.97 -0.01 14.9 0ZM12.38 7.34L12.38 8.45L8.5 8.45L4.62 8.45L4.62 7.34L4.62 6.23L8.5 6.23L12.38 6.23L12.38 7.34ZM7.16 12.76C7.05 12.77 6.96 12.81 6.84 12.91C6.74 12.98 6.68 13.03 6.43 13.26C6.32 13.36 6.2 13.47 6.16 13.5C5.9 13.72 5.45 13.92 4.97 14.04C4.21 14.22 3.37 14.19 2.65 13.96C2.29 13.85 1.98 13.7 1.73 13.51C1.59 13.42 1.42 13.25 1.31 13.12C1.09 12.86 0.97 12.79 0.66 12.77C0.61 12.76 0.56 12.77 0.53 12.77C0.4 12.79 0.21 12.92 0.11 13.04C0.04 13.12 0.01 13.17 0 13.25C-0.01 13.34 0 13.58 0.01 13.63C0.07 13.79 0.38 14.13 0.7 14.39C1.21 14.82 1.73 15.09 2.43 15.27C2.96 15.41 3.33 15.46 3.99 15.46C4.45 15.46 4.75 15.43 5.04 15.37C5.78 15.21 6.31 15.01 6.89 14.64C7.19 14.45 7.22 14.43 7.31 14.48C7.34 14.5 7.4 14.53 7.45 14.57C7.79 14.81 8.13 14.99 8.59 15.15C9.01 15.3 9.41 15.39 9.87 15.43C10.11 15.46 10.88 15.46 11.12 15.43C11.42 15.41 11.6 15.38 11.87 15.31C12.48 15.16 13 14.94 13.47 14.61C13.55 14.56 13.65 14.5 13.68 14.48C13.77 14.43 13.79 14.44 14.09 14.63C14.3 14.76 14.42 14.83 14.6 14.92C15.55 15.39 16.73 15.57 17.85 15.41C18.61 15.31 19.33 15.06 19.89 14.7C20.31 14.43 20.82 13.93 20.96 13.67C20.99 13.61 21 13.52 20.99 13.37C20.99 13.22 20.98 13.17 20.92 13.09C20.82 12.94 20.68 12.83 20.51 12.79C20.41 12.76 20.23 12.76 20.13 12.79C19.99 12.82 19.93 12.87 19.72 13.08C19.22 13.59 18.93 13.77 18.37 13.95C18.08 14.04 17.79 14.11 17.49 14.14C17.33 14.16 16.89 14.17 16.72 14.15C16.19 14.11 15.71 13.99 15.25 13.76C14.97 13.63 14.88 13.56 14.53 13.23C14.1 12.83 13.99 12.76 13.77 12.76C13.54 12.76 13.43 12.83 12.94 13.29C12.63 13.58 12.54 13.64 12.26 13.78C11.66 14.06 11.27 14.14 10.48 14.14C10 14.14 9.66 14.11 9.37 14.03C9.08 13.95 8.67 13.77 8.46 13.63C8.34 13.55 8.25 13.48 8.01 13.25C7.77 13.03 7.71 12.98 7.62 12.91C7.46 12.79 7.33 12.75 7.16 12.76ZM0.53 16.3C0.37 16.32 0.17 16.46 0.06 16.62C0 16.72 0 16.73 0 16.94C0 17.12 0 17.13 0.02 17.18C0.14 17.42 0.59 17.87 1.02 18.17C1.24 18.32 1.53 18.48 1.79 18.59C2.13 18.73 2.64 18.87 3.01 18.92C3.43 18.99 4.06 19 4.54 18.97C4.77 18.95 4.88 18.93 5.08 18.89C5.79 18.74 6.33 18.52 6.89 18.16C7.07 18.04 7.21 17.99 7.29 18.01C7.32 18.02 7.31 18.01 7.49 18.13C7.93 18.41 8.37 18.62 8.77 18.74C9.27 18.9 9.84 18.98 10.49 18.98C11.42 18.98 12.18 18.82 12.87 18.49C13.06 18.39 13.17 18.33 13.43 18.16C13.65 18.02 13.72 17.98 13.76 17.98C13.8 17.98 13.86 18.01 14.01 18.11C14.45 18.38 14.72 18.52 15.07 18.65C16.38 19.13 17.92 19.11 19.19 18.58C19.73 18.36 20.13 18.1 20.55 17.69C20.71 17.53 20.83 17.4 20.91 17.28C20.99 17.16 20.99 17.15 20.99 16.94C20.99 16.73 20.99 16.72 20.92 16.62C20.84 16.49 20.7 16.39 20.56 16.33C20.46 16.3 20.39 16.29 20.28 16.29C20.07 16.3 19.9 16.4 19.7 16.62C19.49 16.85 19.27 17.04 19.03 17.18C18.6 17.44 18.1 17.6 17.53 17.66C17.36 17.68 16.89 17.69 16.72 17.68C16.17 17.64 15.64 17.49 15.19 17.26C14.96 17.15 14.84 17.06 14.51 16.74C14.22 16.47 14.08 16.36 13.94 16.31C13.9 16.3 13.87 16.29 13.77 16.29C13.67 16.29 13.64 16.3 13.59 16.31C13.45 16.36 13.32 16.46 13 16.76C12.63 17.11 12.52 17.19 12.19 17.34C11.71 17.56 11.4 17.63 10.87 17.66C10.65 17.67 10.12 17.67 9.95 17.65C9.5 17.61 9.19 17.52 8.72 17.3C8.43 17.16 8.34 17.09 7.99 16.76C7.55 16.34 7.44 16.28 7.2 16.29C7.12 16.29 7.09 16.3 7.04 16.32C6.9 16.37 6.77 16.47 6.51 16.72C6.13 17.07 6.02 17.16 5.76 17.29C4.69 17.81 3.27 17.82 2.2 17.32C1.83 17.14 1.53 16.92 1.3 16.64C1.12 16.42 1 16.34 0.78 16.31C0.69 16.29 0.58 16.29 0.53 16.3Z" fill="#F4683F" fill-opacity="1.000000" fill-rule="evenodd"/>
</svg>
