<svg width="23.000000" height="17.000000" viewBox="0 0 23 17" fill="none" xmlns="http://www.w3.org/2000/svg" xmlns:xlink="http://www.w3.org/1999/xlink">
	<desc>
			Created with Pixso.
	</desc>
	<defs/>
	<path id="icon_bed" d="M4.95 0.03C4.45 0.11 3.95 0.36 3.59 0.71C3.35 0.96 3.09 1.37 2.98 1.71C2.88 1.99 2.88 2.05 2.86 4.55L2.85 7.11L2.39 7.14C1.7 7.17 1.23 7.36 0.76 7.79C0.48 8.05 0.23 8.43 0.1 8.8L0 9.1L0 12.83C0 16.54 0 16.57 0.09 16.69C0.25 16.91 0.41 17 0.65 17C0.88 17 1.04 16.91 1.21 16.69C1.28 16.59 1.3 16.49 1.31 16.08L1.33 15.6L11.49 15.6L21.64 15.6L21.66 16.08C21.67 16.49 21.69 16.59 21.77 16.69C21.93 16.91 22.09 17 22.33 17C22.56 17 22.72 16.91 22.89 16.69C22.98 16.57 22.98 16.52 22.99 12.97C23 9.81 22.99 9.32 22.93 9.04C22.84 8.62 22.65 8.26 22.35 7.94C21.88 7.42 21.34 7.17 20.59 7.13L20.13 7.11L20.11 4.55C20.1 2.05 20.1 1.99 20 1.71C19.74 0.94 19.13 0.35 18.32 0.08C18.09 0.01 17.76 0 11.62 0C8.07 -0.01 5.07 0.01 4.95 0.03ZM17.96 1.38C18.13 1.43 18.26 1.51 18.42 1.66C18.78 2.02 18.77 1.98 18.77 4.74L18.77 7.12L17.51 7.12C16.82 7.12 16.25 7.11 16.25 7.1C16.25 7.09 16.3 6.93 16.37 6.75C16.47 6.45 16.48 6.35 16.48 5.68C16.48 5.15 16.46 4.86 16.41 4.67C16.19 3.85 15.48 3.14 14.66 2.93C14.26 2.83 8.71 2.83 8.32 2.93C7.49 3.14 6.78 3.85 6.57 4.67C6.51 4.86 6.49 5.15 6.49 5.68C6.49 6.35 6.5 6.45 6.61 6.75C6.67 6.93 6.72 7.09 6.72 7.1C6.72 7.11 6.15 7.12 5.46 7.12L4.2 7.12L4.2 4.74C4.2 2.69 4.21 2.31 4.27 2.11C4.37 1.79 4.64 1.51 4.97 1.4C5.2 1.32 5.45 1.31 11.47 1.31C17.03 1.31 17.75 1.32 17.96 1.38ZM14.48 4.28C14.71 4.38 14.94 4.61 15.05 4.84C15.11 4.98 15.13 5.13 15.13 5.64C15.13 6.23 15.12 6.28 15.01 6.5C14.87 6.77 14.59 7 14.33 7.08C14.1 7.14 8.87 7.14 8.64 7.08C8.38 7 8.1 6.77 7.97 6.5C7.85 6.28 7.84 6.23 7.84 5.64C7.85 4.94 7.89 4.78 8.16 4.51C8.49 4.18 8.35 4.2 11.49 4.2C14.11 4.2 14.31 4.2 14.48 4.28ZM20.85 8.5C21.1 8.57 21.38 8.8 21.51 9.05C21.63 9.27 21.63 9.3 21.64 10.33L21.66 11.38L11.49 11.38L1.32 11.38L1.33 10.33C1.34 9.3 1.35 9.27 1.46 9.06C1.59 8.81 1.82 8.61 2.07 8.52C2.22 8.47 3.74 8.46 11.46 8.46C17.68 8.46 20.74 8.47 20.85 8.5ZM21.65 13.49L21.65 14.27L11.49 14.27L1.32 14.27L1.32 13.49L1.32 12.71L11.49 12.71L21.65 12.71L21.65 13.49Z" fill="#F4683F" fill-opacity="1.000000" fill-rule="evenodd"/>
</svg>
