<svg width="19.000000" height="19.000000" viewBox="0 0 19 19" fill="none" xmlns="http://www.w3.org/2000/svg" xmlns:xlink="http://www.w3.org/1999/xlink">
	<desc>
			Created with Pixso.
	</desc>
	<defs/>
	<path id="icon_entertainment" d="M8.95 0.05C8.81 0.07 8.63 0.12 8.54 0.16C8.45 0.19 6.73 1.07 4.73 2.1C1.14 3.96 1.09 3.99 0.77 4.28C0.39 4.61 0.18 4.96 0.07 5.38C-0.03 5.74 -0.03 13.26 0.06 13.62C0.18 14.04 0.4 14.39 0.77 14.72C1.09 15.02 1.14 15.05 4.74 16.91C7 18.08 8.51 18.84 8.69 18.9C8.95 18.98 9.06 18.99 9.49 19C10.13 19 10.38 18.92 11.2 18.51C11.53 18.33 13.18 17.48 14.86 16.61C17.87 15.05 17.93 15.02 18.25 14.72C18.48 14.51 18.62 14.35 18.72 14.17C19.02 13.63 18.99 13.97 18.99 9.52C18.99 5.11 19.01 5.38 18.74 4.87C18.58 4.58 18.21 4.18 17.93 4.01C17.63 3.83 10.78 0.28 10.54 0.19C10.07 0 9.46 -0.06 8.95 0.05ZM9.89 1.16C10.13 1.22 12.7 2.56 12.66 2.59C12.61 2.64 9.54 4.23 9.51 4.23C9.47 4.23 6.41 2.64 6.36 2.59C6.32 2.56 8.93 1.2 9.14 1.15C9.35 1.09 9.68 1.1 9.89 1.16ZM6.74 4.09C7.54 4.51 8.21 4.87 8.21 4.88C8.22 4.9 7.52 5.28 6.65 5.73C5.29 6.43 5.07 6.53 4.99 6.5C4.87 6.45 1.93 4.93 1.9 4.9C1.88 4.89 2.59 4.51 3.46 4.05C4.99 3.26 5.06 3.23 5.16 3.28C5.22 3.31 5.93 3.67 6.74 4.09ZM15.58 4.06C16.44 4.51 17.14 4.89 17.12 4.9C17.08 4.93 14.17 6.45 14.04 6.5C13.95 6.53 13.81 6.47 12.37 5.73C11.5 5.28 10.8 4.9 10.8 4.88C10.81 4.85 13.94 3.22 13.98 3.23C13.99 3.24 14.71 3.61 15.58 4.06ZM11.12 6.36C11.98 6.81 12.69 7.19 12.69 7.2C12.69 7.23 9.57 8.83 9.51 8.83C9.46 8.83 6.46 7.29 6.38 7.22C6.34 7.19 6.48 7.1 6.96 6.85C7.3 6.67 8.01 6.3 8.54 6.03C9.06 5.76 9.5 5.54 9.51 5.54C9.53 5.54 10.25 5.91 11.12 6.36ZM2.97 6.75L4.42 7.51L4.42 9.17L4.42 10.84L3.71 10.47C3.32 10.26 2.6 9.89 2.12 9.64L1.24 9.19L1.24 7.52L1.24 5.85L1.38 5.92C1.45 5.96 2.17 6.34 2.97 6.75ZM17.78 7.52L17.78 9.19L17.08 9.55C16.7 9.74 15.99 10.11 15.49 10.37L14.59 10.84L14.59 9.17L14.59 7.51L16.17 6.69C17.04 6.23 17.76 5.86 17.77 5.86C17.77 5.86 17.78 6.61 17.78 7.52ZM7.31 9L8.89 9.82L8.89 11.48L8.89 13.15L8.73 13.07C8.65 13.03 7.93 12.65 7.13 12.24L5.69 11.49L5.67 9.82C5.67 8.91 5.68 8.16 5.7 8.17C5.72 8.18 6.44 8.55 7.31 9ZM13.3 11.49C13.26 11.53 10.52 12.96 10.22 13.1L10.13 13.15L10.13 11.48L10.13 9.82L11.73 8.99L13.33 8.16L13.34 9.81C13.35 11.09 13.34 11.46 13.3 11.49ZM3.73 11.76L4.42 12.12L4.42 13.79L4.42 15.45L4.29 15.38C4.22 15.34 3.64 15.04 3.02 14.72C2.39 14.4 1.81 14.08 1.71 14.01C1.62 13.95 1.48 13.79 1.4 13.66L1.26 13.42L1.25 11.95L1.24 10.47L2.14 10.94C2.63 11.2 3.35 11.57 3.73 11.76ZM17.77 12.27L17.75 13.42L17.61 13.66C17.53 13.79 17.4 13.95 17.3 14.02C17.17 14.11 16.4 14.52 14.62 15.44C14.61 15.45 14.59 14.7 14.59 13.79L14.59 12.12L16.17 11.3L17.75 10.48L17.77 10.8C17.77 10.98 17.77 11.64 17.77 12.27ZM7.32 13.62L8.87 14.43L8.88 16.09C8.88 17.05 8.87 17.75 8.85 17.75C8.83 17.74 8.11 17.37 7.24 16.92L5.67 16.1L5.66 14.45C5.66 13.16 5.68 12.81 5.72 12.81C5.74 12.81 6.47 13.18 7.32 13.62ZM13.35 14.45L13.35 16.1L11.78 16.92C10.91 17.37 10.18 17.74 10.16 17.75C10.14 17.75 10.13 17.05 10.14 16.09L10.15 14.43L11.7 13.62C12.55 13.18 13.27 12.81 13.3 12.81C13.34 12.81 13.35 13.16 13.35 14.45Z" fill="#F4683F" fill-opacity="1.000000" fill-rule="evenodd"/>
</svg>
