<svg width="17.000000" height="24.000000" viewBox="0 0 17 24" fill="none" xmlns="http://www.w3.org/2000/svg" xmlns:xlink="http://www.w3.org/1999/xlink">
	<desc>
			Created with Pixso.
	</desc>
	<defs/>
	<path id="Vector 6 (Stroke)" d="M8.25 0.04C8.41 -0.02 8.58 -0.02 8.74 0.04C9.75 0.46 10.66 1.11 11.36 1.75C11.89 2.23 12.32 2.74 12.62 3.17C14.25 2.81 15.69 2.92 16.51 3.07C16.78 3.12 16.98 3.33 16.99 3.59C17.08 6.5 15.89 8.56 15.06 9.45C15.54 11.52 14.93 13.09 13.91 14.2C13.01 15.18 11.81 15.78 10.84 16.08L10.84 23.45C10.84 23.75 10.58 24 10.25 24L6.74 24C6.41 24 6.15 23.75 6.15 23.45L6.15 16.08C5.18 15.78 3.98 15.18 3.08 14.2C2.06 13.09 1.45 11.52 1.93 9.45C1.1 8.56 -0.09 6.5 0 3.59C0.01 3.33 0.21 3.12 0.48 3.07C1.48 2.89 3.04 2.88 4.59 3.38C4.85 2.95 5.23 2.43 5.69 1.92C6.35 1.2 7.21 0.47 8.25 0.04ZM5.65 3.87C6.32 4.34 6.79 5.1 7.01 6.04C7.07 6.29 7.11 6.55 7.14 6.83C8.33 5.18 9.76 4.19 11.19 3.62C11.27 3.58 11.36 3.55 11.44 3.52C11.22 3.22 10.9 2.87 10.52 2.52C9.95 1.99 9.25 1.49 8.5 1.14C7.78 1.49 7.14 2.03 6.61 2.61C6.2 3.06 5.88 3.51 5.65 3.87ZM5.65 9.53C6.03 8.2 6.05 7.1 5.85 6.27C5.62 5.31 5.13 4.77 4.63 4.56C3.4 4.06 2.11 3.98 1.18 4.07C1.23 6.54 2.29 8.18 2.87 8.79C3.66 8.91 4.64 9.14 5.65 9.53ZM3.04 9.92C2.73 11.53 3.24 12.69 3.99 13.5C4.82 14.4 5.98 14.92 6.82 15.13L9.62 15.13C9.46 13.72 8.66 12.64 7.58 11.82C7.03 11.4 6.4 11.05 5.77 10.77C5.77 10.77 5.76 10.77 5.76 10.76C4.81 10.34 3.85 10.07 3.04 9.92ZM10.79 14.93C11.53 14.66 12.36 14.2 13 13.5C13.77 12.67 14.28 11.47 13.92 9.79C11.13 9.55 9.46 10.59 8.76 11.33C9.8 12.24 10.6 13.42 10.79 14.93ZM7.84 10.64C8.81 9.61 10.91 8.4 14.18 8.72C14.77 8.07 15.76 6.45 15.81 4.07C14.82 3.96 13.26 3.97 11.67 4.61C9.89 5.32 7.98 6.84 6.75 10.01C7.12 10.2 7.49 10.4 7.84 10.64ZM9.65 16.21L7.34 16.21L7.34 17.54L9.65 19.08L9.65 16.21ZM9.65 20.42L7.34 18.88L7.34 18.91L9.65 21.27L9.65 20.42ZM9.65 22.9L7.34 20.53L7.34 22.91L9.65 22.91L9.65 22.9Z" fill="#F4683F" fill-opacity="1.000000" fill-rule="evenodd"/>
</svg>
