<svg width="21.667114" height="20.025391" viewBox="0 0 21.6671 20.0254" fill="none" xmlns="http://www.w3.org/2000/svg" xmlns:xlink="http://www.w3.org/1999/xlink">
	<desc>
			Created with Pixso.
	</desc>
	<defs/>
	<path id="Vector" d="M10.83 1.65C13.37 -0.63 17.31 -0.56 19.76 1.9C22.21 4.36 22.29 8.27 20.01 10.82L10.83 20.02L1.64 10.82C-0.64 8.27 -0.55 4.35 1.9 1.9C4.35 -0.55 8.28 -0.64 10.83 1.65ZM18.22 3.43C16.6 1.8 13.98 1.74 12.28 3.26L10.83 4.56L9.38 3.26C7.68 1.73 5.06 1.8 3.43 3.43C1.82 5.05 1.74 7.63 3.22 9.34L10.83 16.95L18.43 9.34C19.92 7.63 19.84 5.05 18.22 3.43Z" fill="#333333" fill-opacity="1.000000" fill-rule="nonzero"/>
</svg>
