<svg width="13.333252" height="17.500000" viewBox="0 0 13.3333 17.5" fill="none" xmlns="http://www.w3.org/2000/svg" xmlns:xlink="http://www.w3.org/1999/xlink">
	<desc>
			Created with Pixso.
	</desc>
	<defs/>
	<path id="Vector" d="M0 17.5C0 15.73 0.7 14.03 1.95 12.78C3.2 11.53 4.89 10.83 6.66 10.83C8.43 10.83 10.13 11.53 11.38 12.78C12.63 14.03 13.33 15.73 13.33 17.5L11.66 17.5C11.66 16.17 11.13 14.9 10.2 13.96C9.26 13.02 7.99 12.5 6.66 12.5C5.34 12.5 4.06 13.02 3.13 13.96C2.19 14.9 1.66 16.17 1.66 17.5L0 17.5ZM6.66 10C3.9 10 1.66 7.76 1.66 5C1.66 2.23 3.9 0 6.66 0C9.42 0 11.66 2.23 11.66 5C11.66 7.76 9.42 10 6.66 10ZM6.66 8.33C8.5 8.33 10 6.84 10 5C10 3.15 8.5 1.66 6.66 1.66C4.82 1.66 3.33 3.15 3.33 5C3.33 6.84 4.82 8.33 6.66 8.33Z" fill="#727488" fill-opacity="1.000000" fill-rule="nonzero"/>
</svg>
