<svg width="12.383301" height="17.999962" viewBox="0 0 12.3833 18" fill="none" xmlns="http://www.w3.org/2000/svg" xmlns:xlink="http://www.w3.org/1999/xlink">
	<desc>
			Created with Pixso.
	</desc>
	<defs/>
	<path id="Vector" d="M6.19 0C2.77 0 0 2.77 0 6.19C0 8.79 3.59 14.8 5.3 17.51C5.5 17.81 5.83 18 6.19 18C6.55 17.99 6.88 17.81 7.07 17.51C8.78 14.8 12.38 8.79 12.38 6.19C12.38 2.77 9.61 0 6.19 0ZM6.19 9.97C4.25 9.97 2.68 8.4 2.68 6.47C2.68 4.53 4.25 2.96 6.19 2.96C8.12 2.96 9.69 4.53 9.69 6.47C9.69 8.4 8.12 9.97 6.19 9.97Z" fill="#F4683F" fill-opacity="1.000000" fill-rule="nonzero"/>
</svg>
