<svg width="21.126953" height="21.126953" viewBox="0 0 21.127 21.127" fill="none" xmlns="http://www.w3.org/2000/svg" xmlns:xlink="http://www.w3.org/1999/xlink">
	<desc>
			Created with Pixso.
	</desc>
	<defs/>
	<path id="Vector" d="M10.56 7.39C9.72 7.39 8.91 7.72 8.32 8.32C7.72 8.91 7.39 9.72 7.39 10.56C7.39 11.4 7.72 12.21 8.32 12.8C8.91 13.39 9.72 13.73 10.56 13.73C11.4 13.73 12.21 13.39 12.8 12.8C13.39 12.21 13.73 11.4 13.73 10.56C13.73 9.72 13.39 8.91 12.8 8.32C12.21 7.72 11.4 7.39 10.56 7.39ZM10.56 5.28C11.96 5.28 13.3 5.83 14.29 6.82C15.28 7.81 15.84 9.16 15.84 10.56C15.84 11.96 15.28 13.3 14.29 14.29C13.3 15.28 11.96 15.84 10.56 15.84C9.16 15.84 7.81 15.28 6.82 14.29C5.83 13.3 5.28 11.96 5.28 10.56C5.28 9.16 5.83 7.81 6.82 6.82C7.81 5.83 9.16 5.28 10.56 5.28ZM17.42 5.01C17.42 5.36 17.29 5.7 17.04 5.95C16.79 6.19 16.45 6.33 16.1 6.33C15.75 6.33 15.42 6.19 15.17 5.95C14.92 5.7 14.78 5.36 14.78 5.01C14.78 4.66 14.92 4.33 15.17 4.08C15.42 3.83 15.75 3.69 16.1 3.69C16.45 3.69 16.79 3.83 17.04 4.08C17.29 4.33 17.42 4.66 17.42 5.01ZM10.56 2.11C7.95 2.11 7.52 2.12 6.3 2.17C5.47 2.21 4.92 2.32 4.4 2.52C3.94 2.7 3.61 2.91 3.26 3.26C2.93 3.58 2.68 3.97 2.52 4.4C2.32 4.92 2.21 5.48 2.17 6.3C2.11 7.47 2.11 7.88 2.11 10.56C2.11 13.17 2.12 13.6 2.17 14.81C2.21 15.64 2.32 16.2 2.52 16.71C2.7 17.17 2.91 17.5 3.26 17.85C3.62 18.21 3.95 18.42 4.4 18.6C4.92 18.8 5.48 18.91 6.3 18.95C7.47 19 7.88 19.01 10.56 19.01C13.17 19.01 13.6 19 14.81 18.95C15.64 18.91 16.2 18.8 16.71 18.6C17.17 18.42 17.5 18.21 17.85 17.86C18.21 17.5 18.42 17.17 18.6 16.72C18.8 16.2 18.91 15.64 18.95 14.81C19 13.65 19.01 13.24 19.01 10.56C19.01 7.95 19 7.52 18.95 6.3C18.91 5.48 18.8 4.92 18.6 4.4C18.44 3.97 18.18 3.58 17.85 3.26C17.54 2.93 17.15 2.68 16.71 2.52C16.2 2.32 15.64 2.21 14.81 2.17C13.65 2.11 13.24 2.11 10.56 2.11ZM10.56 0C13.43 0 13.79 0.01 14.91 0.06C16.04 0.11 16.8 0.29 17.48 0.55C18.17 0.82 18.76 1.18 19.35 1.77C19.89 2.3 20.3 2.93 20.57 3.64C20.83 4.31 21.01 5.08 21.06 6.2C21.11 7.33 21.12 7.69 21.12 10.56C21.12 13.43 21.11 13.79 21.06 14.91C21.01 16.04 20.83 16.8 20.57 17.48C20.3 18.18 19.89 18.82 19.35 19.35C18.82 19.89 18.18 20.3 17.48 20.57C16.8 20.83 16.04 21.01 14.91 21.06C13.79 21.11 13.43 21.12 10.56 21.12C7.69 21.12 7.33 21.11 6.2 21.06C5.08 21.01 4.31 20.83 3.64 20.57C2.93 20.3 2.3 19.89 1.77 19.35C1.23 18.82 0.81 18.18 0.55 17.48C0.29 16.8 0.11 16.04 0.06 14.91C0.01 13.79 0 13.43 0 10.56C0 7.69 0.01 7.33 0.06 6.2C0.11 5.08 0.29 4.31 0.55 3.64C0.81 2.93 1.23 2.29 1.77 1.77C2.3 1.23 2.93 0.81 3.64 0.55C4.31 0.29 5.08 0.11 6.2 0.06C7.33 0.01 7.69 0 10.56 0Z" fill="#C0C2D7" fill-opacity="1.000000" fill-rule="nonzero"/>
</svg>
