<svg width="20.833313" height="20.833496" viewBox="0 0 20.8333 20.8335" fill="none" xmlns="http://www.w3.org/2000/svg" xmlns:xlink="http://www.w3.org/1999/xlink">
	<desc>
			Created with Pixso.
	</desc>
	<defs/>
	<path id="Vector" d="M10.41 7.29C9.58 7.29 8.79 7.62 8.2 8.2C7.62 8.79 7.29 9.58 7.29 10.41C7.29 11.24 7.62 12.04 8.2 12.62C8.79 13.21 9.58 13.54 10.41 13.54C11.24 13.54 12.04 13.21 12.62 12.62C13.21 12.04 13.54 11.24 13.54 10.41C13.54 9.58 13.21 8.79 12.62 8.2C12.04 7.62 11.24 7.29 10.41 7.29ZM10.41 5.2C11.79 5.2 13.12 5.75 14.09 6.73C15.07 7.71 15.62 9.03 15.62 10.41C15.62 11.79 15.07 13.12 14.09 14.09C13.12 15.07 11.79 15.62 10.41 15.62C9.03 15.62 7.71 15.07 6.73 14.09C5.75 13.12 5.2 11.79 5.2 10.41C5.2 9.03 5.75 7.71 6.73 6.73C7.71 5.75 9.03 5.2 10.41 5.2ZM17.18 4.94C17.18 5.29 17.05 5.62 16.8 5.86C16.56 6.11 16.23 6.25 15.88 6.25C15.54 6.25 15.2 6.11 14.96 5.86C14.72 5.62 14.58 5.29 14.58 4.94C14.58 4.6 14.72 4.27 14.96 4.02C15.2 3.78 15.54 3.64 15.88 3.64C16.23 3.64 16.56 3.78 16.8 4.02C17.05 4.27 17.18 4.6 17.18 4.94ZM10.41 2.08C7.83 2.08 7.41 2.09 6.21 2.14C5.4 2.18 4.85 2.29 4.34 2.48C3.89 2.66 3.56 2.87 3.22 3.22C2.89 3.53 2.64 3.92 2.48 4.34C2.29 4.85 2.18 5.4 2.14 6.21C2.08 7.36 2.08 7.77 2.08 10.41C2.08 12.99 2.09 13.41 2.14 14.61C2.18 15.42 2.29 15.97 2.48 16.48C2.66 16.93 2.87 17.26 3.21 17.61C3.57 17.96 3.89 18.16 4.34 18.34C4.85 18.54 5.4 18.65 6.21 18.68C7.36 18.74 7.77 18.75 10.41 18.75C12.99 18.75 13.41 18.74 14.61 18.68C15.42 18.65 15.97 18.54 16.48 18.34C16.93 18.16 17.26 17.95 17.61 17.61C17.96 17.26 18.17 16.93 18.34 16.48C18.54 15.97 18.65 15.42 18.68 14.61C18.74 13.46 18.75 13.06 18.75 10.41C18.75 7.83 18.74 7.41 18.68 6.21C18.65 5.4 18.54 4.85 18.34 4.34C18.18 3.92 17.93 3.53 17.61 3.22C17.29 2.89 16.91 2.64 16.48 2.48C15.97 2.29 15.42 2.18 14.61 2.14C13.46 2.08 13.06 2.08 10.41 2.08ZM10.41 0C13.24 0 13.6 0.01 14.71 0.06C15.81 0.11 16.57 0.28 17.23 0.54C17.92 0.81 18.5 1.16 19.08 1.74C19.61 2.26 20.02 2.89 20.28 3.59C20.54 4.25 20.71 5.01 20.77 6.12C20.81 7.23 20.83 7.58 20.83 10.41C20.83 13.24 20.82 13.6 20.77 14.71C20.71 15.81 20.54 16.57 20.28 17.23C20.02 17.93 19.61 18.56 19.08 19.08C18.56 19.61 17.93 20.02 17.23 20.28C16.57 20.54 15.81 20.71 14.71 20.77C13.6 20.81 13.24 20.83 10.41 20.83C7.58 20.83 7.23 20.82 6.12 20.77C5.01 20.71 4.25 20.54 3.59 20.28C2.89 20.02 2.26 19.61 1.74 19.08C1.21 18.56 0.8 17.93 0.54 17.23C0.28 16.57 0.11 15.81 0.06 14.71C0.01 13.6 0 13.24 0 10.41C0 7.58 0.01 7.23 0.06 6.12C0.11 5.01 0.28 4.25 0.54 3.59C0.8 2.89 1.21 2.26 1.74 1.74C2.26 1.21 2.89 0.8 3.59 0.54C4.25 0.28 5.01 0.11 6.12 0.06C7.23 0.01 7.58 0 10.41 0Z" fill="#C0C2D7" fill-opacity="1.000000" fill-rule="nonzero"/>
</svg>
