<svg width="15.000854" height="15.000000" viewBox="0 0 15.0009 15" fill="none" xmlns="http://www.w3.org/2000/svg" xmlns:xlink="http://www.w3.org/1999/xlink">
	<desc>
			Created with Pixso.
	</desc>
	<defs/>
	<path id="Vector" d="M15 11.18L15 14.12C15 14.34 14.92 14.54 14.77 14.69C14.63 14.85 14.43 14.94 14.22 14.96C13.86 14.98 13.56 15 13.33 15C5.96 15 0 9.03 0 1.66C0 1.43 0.01 1.13 0.03 0.77C0.05 0.56 0.14 0.36 0.3 0.22C0.45 0.08 0.65 0 0.86 0L3.81 0C3.92 0 4.01 0.03 4.09 0.1C4.17 0.17 4.22 0.27 4.23 0.37C4.25 0.56 4.26 0.71 4.28 0.83C4.45 1.99 4.79 3.11 5.29 4.16C5.37 4.33 5.31 4.53 5.16 4.64L3.37 5.92C4.47 8.48 6.51 10.53 9.07 11.62L10.35 9.83C10.4 9.76 10.48 9.7 10.57 9.68C10.66 9.66 10.75 9.67 10.83 9.71C11.88 10.21 13.01 10.55 14.16 10.71C14.28 10.73 14.43 10.75 14.62 10.76C14.72 10.77 14.82 10.82 14.89 10.9C14.96 10.98 15 11.08 15 11.18L15 11.18Z" fill="#C0C2D7" fill-opacity="1.000000" fill-rule="nonzero"/>
</svg>
