<svg width="20.000000" height="18.000000" viewBox="0 0 20 18" fill="none" xmlns="http://www.w3.org/2000/svg" xmlns:xlink="http://www.w3.org/1999/xlink">
	<desc>
			Created with Pixso.
	</desc>
	<defs/>
	<path id="telegram (Traced)" d="M18.92 0.05C18.81 0.08 16.8 0.89 14.45 1.86C12.09 2.82 8.05 4.47 5.46 5.53C2.87 6.59 0.66 7.51 0.54 7.57C0.3 7.69 0.05 7.95 0.01 8.12C-0.06 8.39 0.12 8.73 0.45 8.94C0.66 9.09 5.01 10.64 5.12 10.61C5.15 10.6 7.74 8.9 10.86 6.84C13.98 4.77 16.58 3.06 16.64 3.04C16.79 2.98 16.99 3.01 17.04 3.09C17.15 3.28 17.36 3.08 10.22 9.77C8.01 11.83 7.85 11.99 7.92 12.05C7.95 12.09 9.6 13.41 11.58 14.99C14.26 17.13 15.22 17.87 15.37 17.92C15.65 18.03 15.99 18.02 16.23 17.9C16.41 17.81 16.69 17.54 16.79 17.36C16.83 17.27 20 0.68 20 0.54C19.99 0.37 19.85 0.13 19.71 0.06C19.55 -0.02 19.2 -0.03 18.92 0.05Z" fill="#C0C2D7" fill-opacity="1.000000" fill-rule="evenodd"/>
</svg>
