<svg width="22.000000" height="14.000000" viewBox="0 0 22 14" fill="none" xmlns="http://www.w3.org/2000/svg" xmlns:xlink="http://www.w3.org/1999/xlink">
	<desc>
			Created with Pixso.
	</desc>
	<defs/>
	<rect id="logo_vk" rx="0.000000" width="21.000000" height="13.000000" transform="translate(0.500000 0.500000)" fill="#FFFFFF" fill-opacity="0"/>
	<path id="logo_vk" d="M11.98 14C4.46 14 0.17 8.74 0 0L3.76 0C3.88 6.41 6.66 9.13 8.86 9.69L8.86 0L12.4 0L12.4 5.53C14.57 5.29 16.86 2.77 17.62 0L21.17 0C20.58 3.41 18.11 5.94 16.35 6.97C18.11 7.81 20.92 10.02 22 14L18.09 14C17.25 11.33 15.17 9.27 12.4 8.99L12.4 14L11.98 14Z" fill="#C0C2D7" fill-opacity="1.000000" fill-rule="nonzero"/>
</svg>
