<svg width="23.000000" height="23.000000" viewBox="0 0 23 23" fill="none" xmlns="http://www.w3.org/2000/svg" xmlns:xlink="http://www.w3.org/1999/xlink">
	<desc>
			Created with Pixso.
	</desc>
	<defs/>
	<path id="whatsapp (Traced)" d="M10.17 0.06C4.86 0.72 0.68 4.96 0.13 10.25C0.05 11.04 0.09 12.53 0.23 13.28C0.44 14.46 0.78 15.51 1.32 16.58L1.6 17.12L0.79 20.05C0.34 21.66 -0.01 22.99 0 23C0 23 1.36 22.65 3 22.22C5.4 21.59 6.02 21.44 6.12 21.48C6.18 21.51 6.5 21.64 6.82 21.79C7.85 22.25 8.94 22.56 10.08 22.72C10.88 22.82 12.27 22.82 13.05 22.72C15.58 22.36 17.85 21.25 19.64 19.47C20.57 18.55 21.19 17.7 21.78 16.54C22.32 15.5 22.69 14.36 22.9 13.16C23.03 12.46 23.03 10.4 22.9 9.66C22.7 8.42 22.37 7.42 21.83 6.32C20.27 3.2 17.39 0.97 13.95 0.23C12.88 0 11.28 -0.07 10.17 0.06ZM13.19 2.05C14.58 2.3 15.72 2.76 16.86 3.52C18.8 4.81 20.23 6.81 20.79 9.03C21.2 10.66 21.17 12.51 20.7 14.08C19.94 16.61 18.13 18.75 15.75 19.9C14.37 20.57 13.1 20.86 11.55 20.86C9.77 20.86 8.2 20.44 6.6 19.52L6.33 19.36L4.55 19.83C3.57 20.08 2.76 20.28 2.76 20.27C2.75 20.26 2.95 19.5 3.2 18.58C3.46 17.66 3.67 16.88 3.67 16.84C3.67 16.79 3.54 16.56 3.39 16.31C1.11 12.62 1.71 7.77 4.82 4.69C6.36 3.17 8.32 2.23 10.51 1.96C11.1 1.89 12.58 1.94 13.19 2.05ZM7.04 6.24C6.76 6.37 6.25 6.97 6.04 7.41C5.62 8.28 5.63 9.37 6.06 10.38C6.6 11.62 7.99 13.39 9.37 14.56C10.33 15.38 11.14 15.86 12.32 16.32C13.53 16.8 13.76 16.85 14.57 16.85C15.2 16.85 15.3 16.84 15.59 16.73C16.07 16.55 16.44 16.32 16.79 15.97C17.07 15.69 17.13 15.61 17.22 15.32C17.33 14.96 17.4 14.38 17.35 14.17C17.32 14.07 17.19 13.98 16.5 13.64C15.24 13.02 14.74 12.8 14.52 12.8C14.34 12.8 14.31 12.82 14.1 13.1C13.61 13.74 13.17 14.23 13.05 14.26C12.91 14.3 12.64 14.2 12 13.88C10.98 13.37 10.14 12.68 9.42 11.77C9.03 11.27 8.68 10.7 8.68 10.57C8.68 10.51 8.86 10.23 9.08 9.94C9.51 9.38 9.64 9.17 9.64 9.01C9.64 8.96 9.55 8.69 9.43 8.42C9.32 8.15 9.09 7.6 8.92 7.19C8.71 6.68 8.56 6.39 8.45 6.29L8.3 6.13L7.78 6.13C7.34 6.13 7.22 6.15 7.04 6.24Z" fill="#C0C2D7" fill-opacity="1.000000" fill-rule="evenodd"/>
</svg>
