<svg width="29.000000" height="20.000000" viewBox="0 0 29 20" fill="none" xmlns="http://www.w3.org/2000/svg" xmlns:xlink="http://www.w3.org/1999/xlink">
	<desc>
			Created with Pixso.
	</desc>
	<defs/>
	<path id="youtube 1 (Traced)" d="M11.97 0C7.11 0.16 4.95 0.31 3.82 0.57C2.95 0.78 2.24 1.18 1.61 1.83C0.94 2.52 0.63 3.11 0.42 4.13C-0.15 6.78 -0.15 13.21 0.42 15.85C0.63 16.88 0.95 17.48 1.6 18.15C2.26 18.82 3.06 19.25 4.01 19.44C5.97 19.83 12.71 20.09 17.41 19.96C22.01 19.83 24.35 19.65 25.4 19.35C26.79 18.96 27.89 17.94 28.37 16.62C29.09 14.61 29.22 7.28 28.59 4.2C28.36 3.09 27.93 2.31 27.2 1.65C26.55 1.07 25.85 0.72 24.98 0.54C24.02 0.35 21.97 0.18 19.39 0.08C17.95 0.02 13 -0.03 11.97 0ZM17.52 2.19C22 2.32 24.31 2.51 25.02 2.82C25.59 3.06 26 3.48 26.19 3.99C26.34 4.39 26.49 5.23 26.59 6.26C26.72 7.53 26.74 11.98 26.62 13.32C26.49 14.88 26.32 15.81 26.1 16.23C25.81 16.76 25.24 17.18 24.57 17.32C22.98 17.67 16.2 17.92 11.69 17.79C8.05 17.69 5.51 17.53 4.51 17.32C3.47 17.11 2.86 16.5 2.64 15.43C2.14 13.05 2.14 6.93 2.64 4.55C2.76 3.97 2.96 3.58 3.31 3.25C3.84 2.73 4.34 2.59 6.18 2.44C9.23 2.19 13.87 2.09 17.52 2.19ZM11.61 14.39L19.46 9.98C19.46 9.98 19.46 9.98 11.61 5.6L11.61 14.39Z" fill="#C0C2D7" fill-opacity="1.000000" fill-rule="evenodd"/>
</svg>
