<svg width="25.392456" height="25.392502" viewBox="0 0 25.3925 25.3925" fill="none" xmlns="http://www.w3.org/2000/svg" xmlns:xlink="http://www.w3.org/1999/xlink">
	<desc>
			Created with Pixso.
	</desc>
	<defs/>
	<path id="Vector" d="M20.03 18.27L25.39 23.62L23.62 25.39L18.27 20.03C16.27 21.63 13.8 22.5 11.25 22.5C5.04 22.5 0 17.45 0 11.25C0 5.04 5.04 0 11.25 0C17.45 0 22.5 5.04 22.5 11.25C22.5 13.8 21.63 16.27 20.03 18.27ZM17.53 17.34C19.11 15.71 20 13.52 20 11.25C20 6.41 16.08 2.5 11.25 2.5C6.41 2.5 2.5 6.41 2.5 11.25C2.5 16.08 6.41 20 11.25 20C13.52 20 15.71 19.11 17.34 17.53L17.53 17.34Z" fill="#FFFFFF" fill-opacity="1.000000" fill-rule="nonzero"/>
</svg>
