<svg width="21.751221" height="22.500000" viewBox="0 0 21.7512 22.5" fill="none" xmlns="http://www.w3.org/2000/svg" xmlns:xlink="http://www.w3.org/1999/xlink">
	<desc>
			Created with Pixso.
	</desc>
	<defs/>
	<path id="Vector" d="M21.75 16.77C21.75 16.77 21.75 16.77 21.75 16.77L21.75 21.19C21.75 21.51 21.63 21.81 21.42 22.04C21.21 22.27 20.93 22.42 20.62 22.44C20.09 22.48 19.66 22.5 19.33 22.5C8.65 22.5 0 13.54 0 2.5C0 2.15 0.01 1.7 0.05 1.16C0.07 0.84 0.21 0.55 0.43 0.33C0.66 0.11 0.95 -0.01 1.26 0L5.53 0C5.68 -0.01 5.82 0.05 5.93 0.16C6.05 0.26 6.12 0.4 6.13 0.56C6.16 0.85 6.18 1.07 6.21 1.25C6.45 2.98 6.94 4.67 7.67 6.25C7.78 6.5 7.71 6.8 7.49 6.96L6.15 7.95C5.41 8.5 5.13 9.51 5.57 10.33C7 13.03 9.15 15.25 11.76 16.73C12.55 17.19 13.53 16.9 14.06 16.13L15.01 14.75C15.09 14.64 15.2 14.56 15.33 14.52C15.45 14.49 15.59 14.5 15.71 14.56C17.23 15.31 18.86 15.82 20.54 16.07C20.71 16.09 20.93 16.12 21.2 16.15C21.35 16.16 21.49 16.24 21.59 16.35C21.69 16.47 21.75 16.61 21.75 16.77C21.75 16.77 21.75 16.77 21.75 16.77Z" fill="#FFFFFF" fill-opacity="1.000000" fill-rule="nonzero"/>
</svg>
